<svg width="26" height="28" viewBox="0 0 26 28" fill="none" xmlns="http://www.w3.org/2000/svg">
<path d="M19.4962 6.70942C18.3482 6.21127 17.1171 5.84426 15.8299 5.63406C15.8065 5.63 15.783 5.64014 15.771 5.66042C15.6126 5.92672 15.4373 6.27413 15.3144 6.54719C13.93 6.35119 12.5526 6.35119 11.1966 6.54719C11.0737 6.26806 10.892 5.92672 10.7329 5.66042C10.7209 5.64082 10.6974 5.63068 10.674 5.63406C9.38753 5.84359 8.15643 6.2106 7.00768 6.70942C6.99774 6.71347 6.98921 6.72024 6.98355 6.72902C4.64842 10.0281 4.00873 13.2461 4.32254 16.4241C4.32396 16.4397 4.33319 16.4546 4.34597 16.464C5.88662 17.534 7.37901 18.1835 8.84368 18.614C8.86713 18.6208 8.89196 18.6127 8.90688 18.5944C9.25335 18.147 9.56219 17.6752 9.827 17.1791C9.84263 17.1501 9.82771 17.1156 9.79577 17.1041C9.30589 16.9284 8.83942 16.7141 8.39072 16.4708C8.35522 16.4512 8.35238 16.4032 8.38503 16.3802C8.47946 16.3133 8.57391 16.2437 8.66407 16.1734C8.68038 16.1605 8.70311 16.1578 8.72229 16.1659C11.6701 17.4387 14.8615 17.4387 17.7745 16.1659C17.7937 16.1571 17.8164 16.1599 17.8334 16.1727C17.9236 16.243 18.0181 16.3133 18.1132 16.3802C18.1458 16.4032 18.1437 16.4512 18.1082 16.4708C17.6595 16.7188 17.193 16.9284 16.7024 17.1034C16.6705 17.1149 16.6563 17.1501 16.6719 17.1791C16.9424 17.6745 17.2513 18.1463 17.5913 18.5938C17.6055 18.6127 17.6311 18.6208 17.6545 18.614C19.1263 18.1835 20.6187 17.534 22.1593 16.464C22.1728 16.4546 22.1814 16.4404 22.1828 16.4248C22.5584 12.7506 21.5537 9.55902 19.5196 6.72969C19.5147 6.72024 19.5062 6.71347 19.4962 6.70942ZM10.2672 14.489C9.37971 14.489 8.64844 13.7185 8.64844 12.7722C8.64844 11.826 9.36553 11.0555 10.2672 11.0555C11.176 11.0555 11.9002 11.8327 11.886 12.7722C11.886 13.7185 11.1689 14.489 10.2672 14.489ZM16.2523 14.489C15.3648 14.489 14.6336 13.7185 14.6336 12.7722C14.6336 11.826 15.3506 11.0555 16.2523 11.0555C17.1611 11.0555 17.8853 11.8327 17.8711 12.7722C17.8711 13.7185 17.1611 14.489 16.2523 14.489Z" fill="white"/>
<path d="M18.5074 22.2875L19.0496 24.0707H3.04557C1.67848 24.0707 0.624971 23.03 0.624971 21.8118V2.88466C0.624971 1.66644 1.67848 0.625764 3.04557 0.625764H22.9532C24.3203 0.625764 25.3738 1.66644 25.3738 2.88466V26.6658L23.2101 24.8639L21.4188 23.3016L21.4178 23.3007L19.5172 21.6357L17.8707 20.1933L18.5074 22.2875Z" stroke="white" stroke-width="1.24994"/>
</svg>
