<svg width="27" height="23" viewBox="0 0 27 23" fill="none" xmlns="http://www.w3.org/2000/svg">
<path d="M9.14616 21.6445C9.14616 22.1887 8.85684 22.5134 8.44656 22.5134C8.3019 22.5134 8.14063 22.4728 7.96988 22.3869L1.35328 19.014C0.964347 18.8158 0.646561 18.2907 0.646561 17.8491V1.31645C0.646561 0.879621 0.8766 0.621821 1.20624 0.621821C1.32245 0.621821 1.45288 0.652853 1.58806 0.722077L1.82047 0.841429H1.82284L9.11533 4.55805C9.12719 4.56521 9.13668 4.57715 9.14616 4.5867V21.6445ZM16.7873 1.66496L17.2331 0.927362C17.392 0.664788 17.6837 0.514404 17.9802 0.514404C18.0489 0.514404 18.1201 0.523952 18.1888 0.543049C18.241 0.554984 18.2956 0.57408 18.3525 0.602725L26.0434 4.52225C26.0458 4.52225 26.0458 4.52463 26.0458 4.52463L26.0529 4.52702C26.0576 4.52941 26.0576 4.53657 26.0624 4.53896C26.1003 4.56999 26.1169 4.6225 26.0908 4.66547L18.4307 17.355L17.6481 18.6488L12.573 8.64467L16.7873 1.66496ZM10.3604 14.9393V6.96896L15.8126 17.7202L10.9082 15.221L10.3604 14.9393ZM26.1454 21.6445C26.1454 22.1553 25.8442 22.4465 25.4007 22.4465C25.2015 22.4465 24.9738 22.3892 24.7343 22.2675L23.6363 21.7066L18.7319 19.2073L26.1454 6.92838V21.6445Z" fill="white"/>
</svg>
