<svg width="22" height="18" viewBox="0 0 22 18" fill="none" xmlns="http://www.w3.org/2000/svg">
<path d="M21.8325 3.86806C21.8985 3.81313 21.9481 3.74094 21.9756 3.65952C22.0031 3.5781 22.0075 3.49065 21.9882 3.4069C21.9689 3.32315 21.9268 3.24639 21.8665 3.18515C21.8062 3.12391 21.7302 3.08061 21.6467 3.06005L20.913 2.8743C20.8463 2.8576 20.7841 2.82629 20.731 2.78263C20.6778 2.73897 20.6351 2.68406 20.6057 2.62185C20.5764 2.55964 20.5613 2.4917 20.5614 2.42293C20.5615 2.35416 20.5769 2.28627 20.6065 2.22418L21.0152 1.3976C21.0538 1.3175 21.0686 1.228 21.0578 1.13974C21.047 1.05148 21.0112 0.968169 20.9544 0.899703C20.8977 0.831236 20.8225 0.780496 20.7378 0.753511C20.6531 0.726526 20.5624 0.72443 20.4765 0.747474L18.619 1.26757C18.5498 1.28776 18.4768 1.29155 18.4059 1.27866C18.335 1.26576 18.268 1.23653 18.2104 1.19327C17.4065 0.590413 16.4289 0.264526 15.4241 0.264526C14.1925 0.264526 13.0114 0.753775 12.1405 1.62464C11.2696 2.49551 10.7804 3.67666 10.7804 4.90826V5.24261C10.7808 5.29965 10.7602 5.35485 10.7225 5.39767C10.6848 5.4405 10.6327 5.46795 10.5761 5.47479C7.96628 5.78128 5.46795 4.45317 2.77459 1.35116C2.71608 1.28663 2.64091 1.23949 2.55735 1.21491C2.47378 1.19033 2.38506 1.18927 2.30093 1.21185C2.22514 1.24668 2.16013 1.30129 2.11274 1.36993C2.06535 1.43857 2.03732 1.51871 2.03159 1.60192C1.65959 3.13003 1.80999 4.73869 2.45882 6.17135C2.47801 6.20935 2.48639 6.2519 2.48304 6.29434C2.47969 6.33678 2.46473 6.37748 2.4398 6.41199C2.41488 6.44651 2.38094 6.4735 2.34171 6.49003C2.30247 6.50656 2.25945 6.51198 2.21734 6.5057L1.17715 6.30138C1.10327 6.2895 1.02763 6.29565 0.956645 6.3193C0.885662 6.34295 0.821444 6.3834 0.769459 6.43721C0.717473 6.49102 0.679259 6.55659 0.65807 6.62835C0.636881 6.7001 0.633344 6.77592 0.64776 6.84934C0.727947 7.5621 0.967411 8.2477 1.34842 8.8554C1.72944 9.46309 2.24225 9.97731 2.84889 10.36C2.88814 10.379 2.92125 10.4087 2.94442 10.4457C2.96758 10.4826 2.97987 10.5253 2.97987 10.569C2.97987 10.6126 2.96758 10.6553 2.94442 10.6923C2.92125 10.7292 2.88814 10.7589 2.84889 10.7779L2.35665 10.973C2.29687 10.9969 2.24273 11.0331 2.19767 11.0791C2.15261 11.1251 2.11761 11.18 2.09491 11.2403C2.0722 11.3005 2.06227 11.3649 2.06576 11.4292C2.06925 11.4935 2.08608 11.5563 2.11518 11.6138C2.38739 12.2094 2.8 12.7302 3.31763 13.1313C3.83525 13.5325 4.44246 13.8021 5.08717 13.9171C5.13199 13.9334 5.17072 13.963 5.19809 14.0021C5.22546 14.0411 5.24014 14.0877 5.24014 14.1354C5.24014 14.183 5.22546 14.2296 5.19809 14.2686C5.17072 14.3077 5.13199 14.3373 5.08717 14.3536C3.82441 14.8759 2.46928 15.1381 1.10285 15.1245C0.979686 15.0998 0.851786 15.1251 0.747282 15.1948C0.642778 15.2645 0.57023 15.3728 0.545598 15.496C0.520966 15.6191 0.546268 15.747 0.615938 15.8515C0.685607 15.956 0.793937 16.0286 0.917097 16.0532C3.28312 17.1754 5.85913 17.7861 8.47709 17.8457C10.7799 17.8808 13.0417 17.2346 14.9783 15.9882C16.5713 14.9248 17.8765 13.4838 18.7775 11.7937C19.6785 10.1035 20.1473 8.21668 20.1421 6.30138V5.49337C20.1427 5.42593 20.158 5.35943 20.1868 5.29848C20.2157 5.23753 20.2575 5.1836 20.3093 5.14044L21.8325 3.86806Z" fill="white"/>
</svg>
