<svg width="28" height="33" viewBox="0 0 28 33" fill="none" xmlns="http://www.w3.org/2000/svg">
<path fill-rule="evenodd" clip-rule="evenodd" d="M3.28 0.714844C1.472 0.714844 0 2.18684 0 4.01084V25.6428C0 27.4668 1.472 28.9388 3.28 28.9388H21.424L20.576 25.9788L22.624 27.8828L24.56 29.6748L28 32.7148V4.01084C28 2.18684 26.528 0.714844 24.72 0.714844H3.28ZM18.5438 21.6113C18.5438 21.6113 17.9678 20.9233 17.4878 20.3153C19.5838 19.7233 20.3838 18.4113 20.3838 18.4113C19.7278 18.8433 19.1038 19.1473 18.5438 19.3553C17.7438 19.6913 16.9758 19.9153 16.2238 20.0433C14.6878 20.3313 13.2798 20.2513 12.0798 20.0273C11.1678 19.8513 10.3838 19.5953 9.72783 19.3393C9.35983 19.1953 8.95983 19.0193 8.55983 18.7953C8.53584 18.7793 8.51184 18.7673 8.48784 18.7553C8.46384 18.7433 8.43983 18.7313 8.41583 18.7153C8.38384 18.6993 8.36784 18.6833 8.35185 18.6673L8.35183 18.6673C8.06383 18.5073 7.90383 18.3953 7.90383 18.3953C7.90383 18.3953 8.67183 19.6753 10.7038 20.2833C10.2238 20.8913 9.63183 21.6113 9.63183 21.6113C6.09583 21.4993 4.75183 19.1793 4.75183 19.1793C4.75183 14.0273 7.05583 9.85128 7.05583 9.85128C9.35983 8.12328 11.5518 8.17128 11.5518 8.17128L11.7118 8.36328C8.83183 9.19528 7.50383 10.4593 7.50383 10.4593C7.50383 10.4593 7.85583 10.2673 8.44783 9.99528C10.1598 9.24328 11.5198 9.03528 12.0798 8.98728L12.1157 8.98121C12.1964 8.96747 12.268 8.95528 12.3518 8.95528C13.3278 8.82728 14.4318 8.79528 15.5838 8.92328C17.1038 9.09928 18.7358 9.54728 20.3998 10.4593C20.3998 10.4593 19.1358 9.25927 16.4158 8.42728L16.6398 8.17128C16.6398 8.17128 18.8318 8.12328 21.1358 9.85128C21.1358 9.85128 23.4398 14.0273 23.4398 19.1793C23.4398 19.1793 22.0798 21.4993 18.5438 21.6113ZM11.1038 14.1393C10.1918 14.1393 9.47183 14.9393 9.47183 15.9153C9.47183 16.8913 10.2078 17.6913 11.1038 17.6913C12.0158 17.6913 12.7358 16.8913 12.7358 15.9153C12.7518 14.9393 12.0158 14.1393 11.1038 14.1393ZM16.9438 14.1393C16.0318 14.1393 15.3118 14.9393 15.3118 15.9153C15.3118 16.8913 16.0478 17.6913 16.9438 17.6913C17.8558 17.6913 18.5758 16.8913 18.5758 15.9153C18.5758 14.9393 17.8558 14.1393 16.9438 14.1393Z" fill="#7289DA"/>
</svg>
