<svg width="48" height="48" viewBox="0 0 48 48" fill="none" xmlns="http://www.w3.org/2000/svg">
<path d="M48 24C48 10.7452 37.2548 0 24 0C10.7452 0 0 10.7452 0 24C0 37.2548 10.7452 48 24 48C37.2548 48 48 37.2548 48 24Z" fill="white"/>
<path fill-rule="evenodd" clip-rule="evenodd" d="M35.7449 24.2729C35.7449 23.422 35.6685 22.6038 35.5267 21.8184H24.2249V26.4602H30.683C30.4049 27.9602 29.5594 29.2311 28.2885 30.082V33.0929H32.1667C34.4358 31.0038 35.7449 27.9275 35.7449 24.2729Z" fill="#4285F4"/>
<path fill-rule="evenodd" clip-rule="evenodd" d="M24.2244 36.0003C27.4644 36.0003 30.1808 34.9257 32.1662 33.093L28.288 30.0821C27.2135 30.8021 25.8389 31.2276 24.2244 31.2276C21.0989 31.2276 18.4535 29.1166 17.5098 26.2803H13.5007V29.3894C15.4753 33.3112 19.5335 36.0003 24.2244 36.0003Z" fill="#34A853"/>
<path fill-rule="evenodd" clip-rule="evenodd" d="M17.5103 26.2795C17.2703 25.5595 17.134 24.7904 17.134 23.9995C17.134 23.2085 17.2703 22.4395 17.5103 21.7194V18.6104H13.5012C12.6885 20.2304 12.2249 22.0631 12.2249 23.9995C12.2249 25.9358 12.6885 27.7686 13.5012 29.3886L17.5103 26.2795Z" fill="#FBBC05"/>
<path fill-rule="evenodd" clip-rule="evenodd" d="M24.2244 16.7727C25.9862 16.7727 27.568 17.3782 28.8117 18.5673L32.2535 15.1255C30.1753 13.1891 27.4589 12 24.2244 12C19.5335 12 15.4753 14.6891 13.5007 18.6109L17.5098 21.72C18.4535 18.8837 21.0989 16.7727 24.2244 16.7727Z" fill="#EA4335"/>
</svg>
