<svg width="28" height="24" viewBox="0 0 28 24" fill="none" xmlns="http://www.w3.org/2000/svg">
<path d="M27.2066 5.513C27.2897 5.44399 27.3519 5.35331 27.3864 5.25103C27.421 5.14876 27.4265 5.03891 27.4023 4.9337C27.3781 4.8285 27.3252 4.73207 27.2494 4.65514C27.1737 4.57822 27.0781 4.52382 26.9733 4.498L26.0516 4.26466C25.9678 4.24368 25.8897 4.20435 25.823 4.14951C25.7562 4.09466 25.7025 4.02568 25.6657 3.94754C25.6288 3.8694 25.6098 3.78405 25.61 3.69766C25.6101 3.61127 25.6295 3.52599 25.6666 3.448L26.18 2.40966C26.2285 2.30905 26.2471 2.19662 26.2335 2.08575C26.22 1.97488 26.1749 1.87023 26.1037 1.78422C26.0324 1.69821 25.9379 1.63448 25.8315 1.60058C25.7251 1.56668 25.6112 1.56405 25.5033 1.59299L23.17 2.24633C23.083 2.27169 22.9914 2.27645 22.9023 2.26025C22.8132 2.24405 22.7291 2.20733 22.6566 2.15299C21.6469 1.3957 20.4188 0.986328 19.1566 0.986328C17.6095 0.986328 16.1258 1.60091 15.0318 2.69487C13.9379 3.78883 13.3233 5.27257 13.3233 6.81966V7.23966C13.3238 7.31132 13.2979 7.38066 13.2506 7.43445C13.2033 7.48825 13.1378 7.52273 13.0666 7.53133C9.7883 7.91633 6.64997 6.248 3.26663 2.35133C3.19314 2.27027 3.09871 2.21105 2.99374 2.18017C2.88877 2.1493 2.77731 2.14797 2.67163 2.17633C2.57643 2.22009 2.49477 2.28868 2.43524 2.37491C2.3757 2.46113 2.34049 2.5618 2.3333 2.66633C1.866 4.58589 2.05493 6.60666 2.86997 8.40633C2.89408 8.45406 2.90461 8.50751 2.9004 8.56082C2.89619 8.61413 2.8774 8.66526 2.84609 8.70862C2.81477 8.75197 2.77214 8.78588 2.72286 8.80664C2.67357 8.8274 2.61953 8.83421 2.56663 8.82633L1.25997 8.56966C1.16717 8.55474 1.07215 8.56247 0.982979 8.59218C0.893812 8.62188 0.813143 8.6727 0.747841 8.74029C0.682538 8.80789 0.634535 8.89026 0.607917 8.9804C0.5813 9.07053 0.576857 9.16577 0.594966 9.25799C0.695695 10.1534 0.996503 11.0146 1.47512 11.778C1.95374 12.5413 2.59792 13.1873 3.35997 13.668C3.40928 13.6919 3.45087 13.7292 3.47997 13.7756C3.50907 13.822 3.5245 13.8757 3.5245 13.9305C3.5245 13.9853 3.50907 14.039 3.47997 14.0854C3.45087 14.1318 3.40928 14.1691 3.35997 14.193L2.74163 14.438C2.66654 14.4681 2.59853 14.5135 2.54193 14.5713C2.48532 14.6291 2.44136 14.698 2.41283 14.7737C2.38431 14.8495 2.37184 14.9303 2.37622 15.0111C2.38061 15.0918 2.40175 15.1708 2.4383 15.243C2.78024 15.9912 3.29855 16.6453 3.94878 17.1493C4.59901 17.6532 5.36177 17.9919 6.17163 18.1363C6.22794 18.1568 6.27659 18.194 6.31097 18.2431C6.34535 18.2921 6.36379 18.3506 6.36379 18.4105C6.36379 18.4704 6.34535 18.5288 6.31097 18.5779C6.27659 18.6269 6.22794 18.6642 6.17163 18.6847C4.58539 19.3407 2.88311 19.6701 1.16663 19.653C1.01192 19.6221 0.851259 19.6538 0.719983 19.7414C0.588708 19.8289 0.497575 19.965 0.466633 20.1197C0.435691 20.2744 0.467474 20.435 0.554991 20.5663C0.642508 20.6976 0.77859 20.7887 0.9333 20.8197C3.90544 22.2293 7.14135 22.9965 10.43 23.0713C13.3227 23.1154 16.1639 22.3037 18.5966 20.738C20.5977 19.4022 22.2372 17.5921 23.369 15.4689C24.5008 13.3458 25.0898 10.9756 25.0833 8.56966V7.55466C25.084 7.46995 25.1032 7.38641 25.1394 7.30985C25.1757 7.23329 25.2282 7.16554 25.2933 7.11133L27.2066 5.513Z" fill="#1DA1F2"/>
</svg>
