<svg width="146" height="30" viewBox="0 0 146 30" fill="none" xmlns="http://www.w3.org/2000/svg">
<path fill-rule="evenodd" clip-rule="evenodd" d="M140.504 14.9771L140.271 15.831C139.784 17.7614 138.811 19.5316 137.446 20.9689C136.081 22.4063 134.371 23.4619 132.482 24.0329C130.593 24.6039 128.591 24.6709 126.669 24.2273C124.747 23.7837 122.972 22.8446 121.516 21.5016C119.862 19.981 118.67 18.0173 118.077 15.8387L117.86 15.0204H117.875L117.587 13.6252C117.05 10.9585 115.889 8.46033 114.202 6.33873C114.007 6.09187 113.787 5.8406 113.588 5.61016L113.335 5.31624L113.306 5.28283L112.688 4.65609L112.525 4.52587C112.382 4.40709 112.226 4.27404 112.061 4.13446C111.663 3.7951 111.213 3.4109 110.761 3.09453C107.705 0.92034 104.019 -0.161742 100.285 0.0195813C96.552 0.200904 92.9851 1.63526 90.1492 4.09564C87.4028 6.45682 85.4886 9.65477 84.694 13.2092C84.6718 13.3066 84.6491 13.4161 84.6301 13.5058C84.6225 13.5442 84.6155 13.577 84.6101 13.6033L84.3122 15.0006H84.3663L84.1399 15.8282C83.6532 17.7588 82.6799 19.5291 81.315 20.9665C79.95 22.404 78.24 23.4596 76.3513 24.0307C74.4627 24.6017 72.4599 24.6687 70.538 24.225C68.6162 23.7813 66.8408 22.842 65.3849 21.4989C63.7323 19.9787 62.5403 18.016 61.9473 15.8387L61.7219 14.9941H61.6477L61.3661 13.6257C60.8277 10.9592 59.6672 8.46114 57.981 6.33926C57.7855 6.0924 57.5661 5.84113 57.3668 5.6107L57.1139 5.31677L57.0857 5.28336L56.4666 4.65669L56.3042 4.5264C56.1606 4.40763 56.0052 4.27464 55.8405 4.13506C55.4419 3.7957 54.9918 3.41144 54.5407 3.09507C51.4842 0.920922 47.7976 -0.161139 44.0642 0.0201826C40.3309 0.201504 36.7639 1.63584 33.9279 4.09617C31.1815 6.45736 29.2673 9.65531 28.4727 13.2097C28.4505 13.3071 28.4277 13.4166 28.4088 13.5064C28.4012 13.5447 28.3947 13.5775 28.3888 13.6038L28.0968 14.9755H28.067L27.8331 15.8294C27.3464 17.7599 26.3732 19.5302 25.0083 20.9677C23.6434 22.4051 21.9334 23.4608 20.0448 24.0319C18.1562 24.6029 16.1534 24.6698 14.2316 24.2261C12.3097 23.7824 10.5344 22.8432 9.07854 21.5C7.42598 19.9795 6.23415 18.0164 5.64144 15.8387L5.41615 14.9941L4.54955 14.9826C4.2365 14.9799 3.92074 14.9799 3.61419 14.9799H3.30113L0 14.9755L0.287601 16.3729C0.826148 19.0393 1.98667 21.5373 3.6727 23.6593C3.86822 23.9034 4.0881 24.1574 4.28687 24.3879C4.37732 24.4919 4.46291 24.5893 4.54036 24.6796L4.56852 24.7152L5.18759 25.3392L5.35007 25.4694V25.4722C5.4936 25.5882 5.64958 25.7212 5.81423 25.8614C6.21286 26.2029 6.66296 26.585 7.11412 26.9052C10.1708 29.079 13.8574 30.1605 17.5907 29.9787C21.324 29.7969 24.8907 28.3621 27.7264 25.9013C30.4731 23.5396 32.3872 20.3408 33.181 16.7856C33.2037 16.6881 33.2265 16.5792 33.2449 16.4889L33.2655 16.3915L33.5574 15.0231H33.5872L33.8206 14.1714C34.3074 12.2408 35.2806 10.4706 36.6456 9.03316C38.0105 7.5957 39.7206 6.54 41.6093 5.96897C43.4979 5.39793 45.5007 5.33104 47.4226 5.77473C49.3444 6.21842 51.1197 7.15758 52.5757 8.50077C54.2281 10.0205 55.4203 11.9826 56.0139 14.1594L56.2392 15.0039H56.3134L56.5955 16.3723C57.1341 19.0386 58.2944 21.5366 59.9801 23.6588C60.1756 23.9029 60.395 24.1569 60.5943 24.3873C60.6842 24.4913 60.7703 24.5887 60.8472 24.679L60.8759 24.7146L61.4945 25.3386L61.657 25.4689V25.4716C61.8005 25.5877 61.9559 25.7207 62.1211 25.8608C62.5197 26.2024 62.9698 26.5844 63.421 26.9046C66.4777 29.0784 70.1643 30.1599 73.8976 29.978C77.6309 29.7962 81.1975 28.3615 84.0332 25.9008C86.7803 23.5393 88.6947 20.3404 89.4884 16.785C89.5111 16.6876 89.5339 16.5787 89.5523 16.4884C89.5599 16.4528 89.5664 16.4194 89.5729 16.391L89.8702 14.9936H89.8161L90.0425 14.1681C90.5292 12.2376 91.5025 10.4673 92.8674 9.02988C94.2324 7.59242 95.9425 6.53673 97.8311 5.96569C99.7197 5.39466 101.723 5.3277 103.644 5.77139C105.566 6.21508 107.342 7.1543 108.798 8.49749C110.45 10.0168 111.643 11.9791 112.236 14.1561L112.452 14.9771H112.437L112.725 16.3745C113.264 19.0409 114.424 21.5389 116.11 23.661C116.305 23.9051 116.525 24.159 116.724 24.3895C116.814 24.4935 116.9 24.5909 116.977 24.6813L117.005 24.7168L117.624 25.3408L117.787 25.4711V25.4738C117.93 25.5899 118.086 25.7228 118.251 25.863C118.649 26.2045 119.1 26.5866 119.551 26.9068C122.608 29.0805 126.294 30.1621 130.028 29.9803C133.761 29.7985 137.328 28.3637 140.164 25.9029C142.91 23.5411 144.825 20.3424 145.619 16.7872C145.641 16.6898 145.664 16.5809 145.682 16.4906L145.703 16.3931L146 14.9957L140.504 14.9771ZM1.6947 17.2952C1.68657 17.2656 1.67955 17.2361 1.67142 17.2065C1.69092 17.2782 1.71094 17.3504 1.73152 17.4216C1.7169 17.3795 1.7039 17.3373 1.69199 17.2952H1.6947ZM5.12964 23.5991C4.94008 23.3802 4.75049 23.1612 4.56905 22.9351C4.74995 23.1601 4.94008 23.3807 5.12964 23.5991ZM7.17964 25.5034C6.98629 25.3457 6.79564 25.1832 6.60553 25.0206C6.79618 25.1848 6.98466 25.3457 7.17964 25.5034C7.37463 25.661 7.57014 25.8143 7.77541 25.9577C7.56743 25.8143 7.37083 25.661 7.17693 25.5034H7.17964ZM60.2466 13.8643C60.2422 13.843 60.2368 13.8216 60.2325 13.8008C60.2325 13.8216 60.2395 13.843 60.2439 13.8643H60.2466ZM59.9655 12.7039C59.9763 12.7428 59.9855 12.7822 59.9958 12.8211C59.9693 12.7237 59.9417 12.6268 59.9146 12.5305C59.9287 12.5885 59.9465 12.6459 59.9617 12.7039H59.9655ZM56.53 6.4022C56.7201 6.62115 56.9091 6.8401 57.0906 7.06615C56.9102 6.83845 56.7201 6.62005 56.53 6.4022ZM58.0005 17.2947C57.9924 17.2656 57.9853 17.2361 57.9772 17.2071C57.9967 17.2777 58.0162 17.3483 58.0368 17.4183C58.0222 17.3773 58.0119 17.3362 57.9978 17.2952L58.0005 17.2947ZM101.12 1.15793C99.5459 1.15551 97.9804 1.39323 96.4763 1.86297C98.7621 1.14911 101.179 0.974422 103.542 1.35236C105.905 1.73031 108.151 2.65077 110.107 4.04305C107.474 2.17234 104.336 1.16534 101.117 1.15853L101.12 1.15793ZM116.186 12.7034C116.196 12.7384 116.204 12.774 116.213 12.809C116.189 12.7214 116.166 12.6345 116.14 12.5474C116.153 12.6 116.168 12.6514 116.181 12.7039L116.186 12.7034ZM113.311 7.06562C113.13 6.83792 112.94 6.61952 112.751 6.40167C112.938 6.62006 113.129 6.83792 113.311 7.06562ZM114.13 17.2947C114.122 17.2651 114.115 17.2344 114.107 17.2048C114.127 17.2782 114.147 17.351 114.168 17.4238C114.153 17.3811 114.139 17.3384 114.128 17.2952L114.13 17.2947ZM117.005 22.9324C117.185 23.1574 117.376 23.378 117.566 23.5964C117.373 23.3807 117.183 23.1601 117.002 22.9351L117.005 22.9324ZM121.667 26.8734C123.52 27.9047 125.56 28.5462 127.665 28.7596C125.559 28.5476 123.518 27.9071 121.665 26.8767L121.667 26.8734ZM129.099 28.8379C131.868 28.8625 134.593 28.1425 136.996 26.7519C134.593 28.1442 131.866 28.8653 129.097 28.8412L129.099 28.8379Z" fill="#FFCD7A"/>
</svg>
