<svg width="32" height="32" viewBox="0 0 32 32" fill="none" xmlns="http://www.w3.org/2000/svg">
<g clip-path="url(#clip0_2992_7334)">
<path d="M26.9795 -0.0913086H12.2666V19.7571H32.1417V5.0442C32.1417 2.22967 29.8207 -0.0913086 27.0062 -0.0913086C26.9928 -0.0913086 26.9795 -0.0913086 26.9795 -0.0913086Z" fill="#142533"/>
<path d="M7.67821 -0.0913086H5.1438C2.32928 -0.0913086 0.00830078 2.22967 0.00830078 5.04419V7.5786H7.67821V-0.0913086Z" fill="#142533"/>
<path d="M-0.00512695 12.167H7.66478V19.8369H-0.00512695V12.167Z" fill="#142533"/>
<path d="M24.5251 32.0422H27.0595C29.8741 32.0422 32.1951 29.7212 32.1951 26.9067V26.8933V24.439H24.5251V32.0422Z" fill="#142533"/>
<path d="M12.2666 24.4258H19.9365V32.0957H12.2666V24.4258Z" fill="#142533"/>
<path d="M-0.00512695 24.4258V26.9602C-0.00512695 29.7747 2.31585 32.0957 5.13038 32.0957H7.66478V24.4258H-0.00512695Z" fill="#142533"/>
</g>
<defs>
<clipPath id="clip0_2992_7334">
<rect width="32" height="32" fill="white"/>
</clipPath>
</defs>
</svg>
