<svg width="32" height="32" viewBox="0 0 32 32" fill="none" xmlns="http://www.w3.org/2000/svg">
<g clip-path="url(#clip0_2994_10381)">
<path d="M15.833 0.0366211C7.02381 0.0366211 -0.111816 7.17225 -0.111816 15.9998C-0.111816 24.5516 6.61922 31.5401 15.079 31.9263C15.3365 31.9447 15.5755 31.9447 15.833 31.9447C19.9158 31.9447 23.6491 30.3998 26.4629 27.8803C24.587 29.1309 22.3985 29.8297 20.0629 29.8297C16.256 29.8297 12.8537 27.9355 10.5732 24.9746C8.80772 22.8964 7.66749 19.8067 7.59393 16.3677C7.59393 16.3493 7.59393 15.632 7.59393 15.6136C7.66749 12.1562 8.80772 9.0849 10.5732 7.00674C12.8537 4.02743 16.2744 2.15156 20.0629 2.15156C22.3985 2.15156 24.587 2.86881 26.4629 4.10099C23.6491 1.58145 19.9526 0.0550119 15.8882 0.0366211C15.8698 0.0366211 15.8514 0.0366211 15.833 0.0366211Z" fill="url(#paint0_linear_2994_10381)"/>
<path d="M10.5732 7.0067C12.0445 5.27797 13.9204 4.22969 15.9985 4.22969C20.6514 4.22969 24.4031 9.48946 24.4031 15.9814C24.4031 22.4734 20.633 27.7331 15.9985 27.7331C13.9388 27.7331 12.0445 26.6849 10.5732 24.9561C12.8537 27.9354 16.256 29.8113 20.0629 29.8113C22.3985 29.8113 24.587 29.0941 26.4629 27.8619C29.7181 24.9377 31.7778 20.6895 31.7778 15.963C31.7778 11.2366 29.7181 6.98831 26.4629 4.06417C24.587 2.8136 22.4169 2.11475 20.0629 2.11475C16.2744 2.15153 12.8721 4.04578 10.5732 7.0067Z" fill="url(#paint1_linear_2994_10381)"/>
</g>
<defs>
<linearGradient id="paint0_linear_2994_10381" x1="13.1761" y1="0.56682" x2="13.1761" y2="31.4901" gradientUnits="userSpaceOnUse">
<stop stop-color="#FF1B2D"/>
<stop offset="0.3" stop-color="#FF1B2D"/>
<stop offset="0.61" stop-color="#FF1B2D"/>
<stop offset="1" stop-color="#A70014"/>
</linearGradient>
<linearGradient id="paint1_linear_2994_10381" x1="21.184" y1="2.38799" x2="21.184" y2="29.7381" gradientUnits="userSpaceOnUse">
<stop stop-color="#9C0000"/>
<stop offset="0.7" stop-color="#FF4B4B"/>
<stop offset="1" stop-color="#FF4B4B"/>
</linearGradient>
<clipPath id="clip0_2994_10381">
<rect width="32" height="32" fill="white"/>
</clipPath>
</defs>
</svg>
