<svg width="20" height="31" viewBox="0 0 20 31" fill="none" xmlns="http://www.w3.org/2000/svg">
<path d="M0.391846 18.2154L1.1139 17.9036L10.0083 14.0308L19.6247 18.2154L16.0144 25.682L7.18569 26.9292L0.539538 19.7579L0.391846 18.2154Z" fill="#133444"/>
<path d="M17.6389 13.6205C16.0471 11.7005 13.7989 10.4697 11.3374 10.1415L11.1733 10.1251C10.402 10.0267 9.63072 10.0267 8.85944 10.1251L8.69533 10.1415C6.2338 10.4697 3.98559 11.7169 2.3938 13.6205L1.99995 14.2769L1.32713 15.3764L0.834823 16.1805C0.834823 16.1969 0.818412 16.2297 0.802002 16.2461V16.2626L1.86867 16.9026L8.67892 20.9395L9.99174 21.7108V12.0779L8.67892 12.6687V11.2246L9.99174 10.6338L11.3046 11.2246L18 14.2769L17.6389 13.6205Z" fill="#C42370"/>
<path d="M19.9201 20.6112C19.9037 23.7784 18.476 26.7651 16.0308 28.7671C15.0955 29.5384 14.0452 30.1128 12.8965 30.5066C11.9611 30.8184 10.9929 30.9661 10.0083 30.9661C4.52726 30.9661 0.0800781 26.0923 0.0800781 20.6112C0.0800781 19.8071 0.17854 19.003 0.375463 18.2153L9.99187 23.9097L19.6083 18.2153C19.8216 19.003 19.9365 19.8071 19.9201 20.6112Z" fill="#1C4D6B"/>
<path d="M8.85966 10.125L10.0084 10.6337L8.69556 11.2409V10.043L8.85966 10.125Z" fill="black"/>
<path d="M8.69556 12.6848L10.0084 12.0776V21.7269L8.69556 20.9392V12.6848Z" fill="black"/>
<path d="M10.0083 12.0776V21.7269L19.2309 16.2787L10.0083 12.0776Z" fill="#1D4259"/>
<path d="M10.0083 0.984375V12.0777L19.2309 16.2787L10.0083 0.984375Z" fill="#4B6B9A"/>
<path d="M10.0082 12.0778V21.7107L8.69539 20.9394L0.802055 16.2789H0.785645H0.802055C0.802055 16.2625 0.818465 16.2296 0.834875 16.2132L1.98359 14.2932L8.67898 11.2573V12.685L10.0082 12.0778Z" fill="#343535"/>
<path d="M10.0082 12.0776V21.7269L8.69533 20.9392L0.802002 16.2787L0.818412 16.2623L8.69533 12.6848L10.0082 12.0776Z" fill="#3E5578"/>
<path d="M10.0084 0.984375V12.0777L0.802246 16.2787L10.0084 0.984375Z" fill="#6DB2D8"/>
<path d="M6.2832 30.1782C6.41449 30.2439 6.56218 30.2931 6.69346 30.3423C6.56218 30.2931 6.4309 30.2275 6.2832 30.1782Z" fill="#335F8A"/>
<path d="M6.69336 30.3423C6.82464 30.3915 6.97233 30.4572 7.12002 30.49C6.98874 30.4572 6.84105 30.4079 6.69336 30.3423Z" fill="#335F8A"/>
<path d="M7.49756 30.605C7.61243 30.6378 7.71089 30.6706 7.82576 30.687C7.71089 30.6706 7.59602 30.6378 7.49756 30.605Z" fill="#335F8A"/>
<path d="M0.39182 18.2153L10.0082 23.9097C9.87695 24.7794 9.64721 25.6164 9.319 26.4369C8.54772 28.3076 7.00516 30.2769 3.98567 28.7671C1.54054 26.7651 0.112846 23.7784 0.0964355 20.6112C0.0964355 19.8071 0.194897 19.003 0.39182 18.2153Z" fill="#6DB2D8"/>
<path d="M16.0309 28.7668L15.9981 28.7832C15.9488 28.816 15.8996 28.8653 15.8504 28.8981L15.834 28.9145C15.7847 28.9637 15.7191 28.9966 15.6699 29.0458C15.6042 29.095 15.555 29.1442 15.4894 29.1771C15.4237 29.2099 15.3581 29.2591 15.3088 29.3083C15.2432 29.3576 15.194 29.374 15.1447 29.4232L15.1119 29.4396C15.0463 29.4724 14.997 29.5053 14.9478 29.5545C14.9478 29.5545 14.9314 29.5545 14.9314 29.5709C14.8658 29.6037 14.8165 29.6365 14.7509 29.6858C14.6853 29.7186 14.6196 29.7514 14.554 29.8006C14.4883 29.8335 14.4227 29.8663 14.357 29.8991L14.1601 29.9976C14.0945 30.0304 14.0288 30.0632 13.9632 30.096C13.8976 30.1289 13.8319 30.1617 13.7663 30.1945C13.635 30.2601 13.4873 30.3094 13.356 30.3586C13.2247 30.4078 13.077 30.4571 12.9294 30.5063C12.8801 30.5227 12.8145 30.5391 12.7653 30.5555L12.5683 30.6212C12.4535 30.654 12.355 30.6868 12.2401 30.7032C12.2073 30.7196 12.1581 30.7196 12.1088 30.736L12.0432 30.7524L11.8627 30.7853C11.797 30.8017 11.7642 30.8017 11.6986 30.8181C11.6494 30.8345 11.6001 30.8345 11.5509 30.8509C11.5017 30.8509 11.436 30.8673 11.3868 30.8837C11.354 30.8837 11.3376 30.8837 11.3047 30.9001L11.1735 30.9165H11.1078C11.0586 30.9165 11.0094 30.933 10.9765 30.933C10.9273 30.933 10.8617 30.9494 10.8124 30.9494C10.7632 30.9494 10.7304 30.9494 10.6811 30.9494C10.6319 30.9494 10.5991 30.9494 10.5663 30.9494C10.517 30.9494 10.4678 30.9494 10.435 30.9494C10.4022 30.9494 10.3037 30.9494 10.2545 30.9494H9.86064C9.795 30.9494 9.72936 30.9494 9.68012 30.9494C9.63089 30.9494 9.58166 30.9494 9.54884 30.9494C9.51602 30.9494 9.46679 30.9494 9.43397 30.9494C9.40115 30.9494 9.35192 30.9494 9.30269 30.9494C9.25346 30.9494 9.18782 30.933 9.13859 30.933C9.08936 30.933 9.04013 30.933 9.0073 30.9165H8.94166C8.90884 30.9165 8.85961 30.9001 8.81038 30.9001C8.77756 30.9001 8.76115 30.9001 8.72833 30.8837C8.6791 30.8837 8.61346 30.8673 8.56423 30.8509C8.515 30.8509 8.46577 30.8345 8.41654 30.8181C8.36731 30.8181 8.30166 30.8017 8.25243 30.7853C8.2032 30.7689 8.13756 30.7524 8.07192 30.7524L8.00628 30.736C7.95705 30.736 7.90782 30.7196 7.875 30.7196C7.76013 30.6868 7.64525 30.654 7.54679 30.6376L7.34987 30.5719C7.28423 30.5555 7.235 30.5391 7.18577 30.5227C7.03807 30.4735 6.90679 30.4242 6.7591 30.375C6.61141 30.3258 6.48013 30.2601 6.34884 30.2109C6.2832 30.1781 6.21756 30.1453 6.15192 30.1124L5.955 30.014L5.75807 29.9155C5.69243 29.8827 5.62679 29.8499 5.56115 29.8171C5.49551 29.7842 5.42987 29.7514 5.36423 29.7022C5.29859 29.6694 5.24936 29.6365 5.18372 29.5873L5.1673 29.5709C5.10166 29.5381 5.05243 29.5053 5.0032 29.456L4.97038 29.4396C4.92115 29.4068 4.85551 29.374 4.80628 29.3248C4.75705 29.2919 4.675 29.2427 4.62577 29.1935C4.56013 29.1442 4.49448 29.1114 4.44525 29.0622L4.28115 28.9309L4.26474 28.9145C4.21551 28.8817 4.16628 28.8324 4.11705 28.7996L4.08423 28.7832C7.0873 30.2765 8.64628 28.3073 9.41756 26.453C9.74577 25.6489 9.97551 24.7955 10.1068 23.9258C10.2381 24.7955 10.4678 25.6324 10.796 26.453C11.4688 28.2909 13.0278 30.2601 16.0309 28.7668Z" fill="#529BBA"/>
<path d="M12.2073 30.7031C12.3221 30.6703 12.437 30.6375 12.5355 30.6211C12.437 30.6375 12.3221 30.6703 12.2073 30.7031Z" fill="#335F8A"/>
<path d="M12.8965 30.49C13.0442 30.4407 13.1755 30.3915 13.3231 30.3423C13.1919 30.4079 13.0442 30.4572 12.8965 30.49Z" fill="#335F8A"/>
<path d="M13.3232 30.3423C13.4545 30.2931 13.6022 30.2275 13.7335 30.1782C13.6022 30.2275 13.4709 30.2931 13.3232 30.3423Z" fill="#335F8A"/>
<path d="M19.9201 20.6112C19.9037 23.7784 18.476 26.7651 16.0309 28.7671C13.0278 30.2605 11.4688 28.2912 10.6975 26.4369C10.3693 25.6328 10.1396 24.7794 10.0083 23.9097L19.6247 18.2153C19.8216 19.003 19.9201 19.8071 19.9201 20.6112Z" fill="#4B6B9A"/>
</svg>
