<svg width="23" height="32" viewBox="0 0 23 32" fill="none" xmlns="http://www.w3.org/2000/svg">
<path d="M11.1602 0C6.76635 0 3.21046 3.55309 3.21046 7.94351V10.9207C1.66751 11.1998 0.120117 11.5719 0.120117 12.0548V27.5919C0.120117 27.5919 0.120117 28.0216 0.603399 28.2254C2.35474 28.9342 9.24484 31.3709 10.8277 31.9291C11.0317 32.0044 11.0893 32.0044 11.1425 32.0044C11.2179 32.0044 11.2533 32.0044 11.4573 31.9291C13.0402 31.3709 19.948 28.9342 21.6993 28.2254C22.1471 28.0393 22.1649 27.6096 22.1649 27.6096V12.0548C22.1649 11.5719 20.6397 11.1821 19.0923 10.9207V7.94351C19.1144 3.55309 15.5364 0 11.1602 0ZM11.1602 3.79676C13.7496 3.79676 15.3147 5.36065 15.3147 7.94794V10.5352C12.4106 10.3314 9.93207 10.3314 7.01021 10.5352V7.94794C7.01021 5.35622 8.57534 3.79676 11.1602 3.79676ZM11.1425 14.3453C14.756 14.3453 17.7887 14.6244 17.7887 15.125V24.8185C17.7887 24.9691 17.771 24.9868 17.638 25.04C17.5094 25.0976 11.475 27.2729 11.475 27.2729C11.475 27.2729 11.2312 27.3482 11.1602 27.3482C11.0849 27.3482 10.8454 27.2552 10.8454 27.2552C10.8454 27.2552 4.81106 25.0799 4.68248 25.0223C4.5539 24.9647 4.53173 24.947 4.53173 24.8008V15.1073C4.49626 14.6067 7.52896 14.3453 11.1425 14.3453Z" fill="black"/>
</svg>
