<svg width="32" height="32" viewBox="0 0 32 32" fill="none" xmlns="http://www.w3.org/2000/svg">
<path d="M7.61094 10.782C12.3214 6.16902 19.9569 6.16902 24.6734 10.782L25.2402 11.3365C25.4778 11.5681 25.4778 11.9398 25.2402 12.1714L23.3023 14.0726C23.1866 14.1884 22.9916 14.1884 22.8758 14.0726L22.0958 13.3109C18.8112 10.0934 13.4792 10.0934 10.1947 13.3109L9.35984 14.1275C9.24406 14.2432 9.04906 14.2432 8.93328 14.1275L6.98938 12.2262C6.75172 11.9946 6.75172 11.6229 6.98938 11.3914L7.61094 10.782ZM28.6831 14.7064L30.4077 16.3943C30.6453 16.6259 30.6453 16.9976 30.4077 17.2292L22.6259 24.8525C22.3883 25.084 22.0105 25.084 21.7728 24.8525L16.2458 19.4412C16.1848 19.3864 16.0934 19.3864 16.0325 19.4412L10.5116 24.8525C10.2739 25.084 9.89609 25.084 9.65844 24.8525L1.87063 17.2353C1.63297 17.0037 1.63297 16.632 1.87063 16.4004L3.59516 14.7125C3.83281 14.4809 4.21062 14.4809 4.44828 14.7125L9.97531 20.1237C10.0363 20.1786 10.1277 20.1786 10.1886 20.1237L15.7095 14.7125C15.9472 14.4809 16.325 14.4809 16.5627 14.7125L22.0897 20.1237C22.1506 20.1786 22.242 20.1786 22.303 20.1237L27.83 14.7125C28.0616 14.4748 28.4455 14.4748 28.6831 14.7064Z" fill="#3A99FB"/>
</svg>
